# xmcd
# Track frame offsets:
# 150
# 13200
# 24378
# 39383
# 56198
# 68650
# 87203
# 103048
# 117399
# 131124
# 146503
# 168598
# 178668
# 197465
# 212617
# 228939
# 248423
#
# Disc length: 3454 seconds
# Revision: 0
# Processed by: cddbd v1.5.1PL0 Copyright (c) Steve Scherf et al.
# Submitted via: VisiTrax 2.9.10.228 - For more info visit www.synapsa.com
#
DISCID=e70d7c11
DTITLE=Kearney.Warren. - My Kinda Country.
DYEAR=2004
DGENRE=Classic Country
TTITLE0=Kiss An Angel Goodmorning.
TTITLE1=Am I That Easy To Forget.
TTITLE2=Build A Bridge ( and Get Over It)
TTITLE3=Blue Eyes Crying In The Rain.
TTITLE4=Boys From The Bush.
TTITLE5=I Can't stop Loving You.
TTITLE6=Fly Like a Bird.
TTITLE7=Your cheatin' Heart.
TTITLE8=Penny Arcade.
TTITLE9=Dance.The.
TTITLE10=Wild Side Of Life.
TTITLE11=Love Letters In The Sand.
TTITLE12=Me And Bobby McGee.
TTITLE13=I Can't Help it If I'm Still In Love With You.
TTITLE14=California Blue.
TTITLE15=If Tomorrow Never Comes.
TTITLE16=On The Road Again.
EXTD=
EXTT0=
EXTT1=
EXTT2=
EXTT3=
EXTT4=
EXTT5=
EXTT6=
EXTT7=
EXTT8=
EXTT9=
EXTT10=
EXTT11=
EXTT12=
EXTT13=
EXTT14=
EXTT15=
EXTT16=
PLAYORDER=
